# xmcd
#
# Track frame offsets:
#	150
#	13587
#	26470
#	36965
#	48935
#	60062
#	72980
#	85375
#	98620
#	110395
#	123835
#	136515
#	150597
#	161050
#
# Disc length: 2337 seconds
#
# Revision: 2
# Processed by: cddbd v1.5.2PL0 Copyright (c) Steve Scherf et al.
# Submitted via: audiograbber 1.83.01
#
DISCID=9f091f0e
DTITLE=Ray Charles - Ain't That Fine
DYEAR=1900
DGENRE=Oldies
TTITLE0=Alone In The City
TTITLE1=Can Anyone Ask For More
TTITLE2=Ain't That Fine
TTITLE3=How Long, How Long Blues
TTITLE4=A Sentimental Blues
TTITLE5=You Always Miss The Water (When The Well Runs Dry)
TTITLE6=I've Had My Fun (Going Down Slow)
TTITLE7=Don't Put All Your Dreams In One Basket
TTITLE8=She's On The Ball
TTITLE9=Baby Won't You Please Come Home
TTITLE10=Rockin' Chair Blues
TTITLE11=I'm Going Down To The River
TTITLE12=Sittin' On Top Of The World (Now She's Gone)
TTITLE13=Someday
EXTD=
EXTT0=
EXTT1=
EXTT2=
EXTT3=
EXTT4=
EXTT5=
EXTT6=
EXTT7=
EXTT8=
EXTT9=
EXTT10=
EXTT11=
EXTT12=
EXTT13=
PLAYORDER=
